# xmcd CD database file
#
# Track frame offsets:
#	180
#	24467
#	48835
#	74497
#	106512
#	129581
#	154248
#	175928
#	193415
#	216602
#	239275
#	261942
#	283161
#	306002
#
# Disc length: 4413 seconds
#
# Revision: 1
# Processed by: cddbd v1.5.1PL2 Copyright (c) Steve Scherf et al.
# Submitted via: NeoAudio 9.9.9
#
DISCID=d2113b0e
DTITLE=Varios - Musica Para Perros CD2
DYEAR=1999
DGENRE=Salsa
TTITLE0=Sin Poderte Hablar
TTITLE1=Porque Este Amor
TTITLE2=Como Te Hago Entender
TTITLE3=Corazon en Blanco
TTITLE4=Ausencia
TTITLE5=No Podras Escapar de Mi
TTITLE6=Quiero Volver Contigo
TTITLE7=Sabre Olvidar
TTITLE8=Ven Devorame Otra Vez
TTITLE9=Ella Se Hizo Deseo
TTITLE10=Nunca Te Dejare Ir
TTITLE11=Hasta El Sol de Hoy
TTITLE12=Pequeñas Cosas
TTITLE13=Te Amo , Te Extraño
EXTD=YEAR: 1999
EXTT0=
EXTT1=
EXTT2=
EXTT3=
EXTT4=
EXTT5=
EXTT6=
EXTT7=
EXTT8=
EXTT9=
EXTT10=
EXTT11=
EXTT12=
EXTT13=
PLAYORDER=
